<svg data-v-0dd9719b="" version="1.0" xmlns="http://www.w3.org/2000/svg" xmlns:xlink="http://www.w3.org/1999/xlink" width="100%" height="100%" viewBox="0 0 340.000000 250.000000" preserveAspectRatio="xMidYMid meet" color-interpolation-filters="sRGB" style="margin: auto;">   <g data-v-0dd9719b="" class="iconmbgsvg" transform="translate(95.04803466796875,61.63035202026367)"><g fill="#333" hollow-target="text"><g mask="url(#a8d84b21-e287-476a-8642-af7487bed155)"><g><rect fill="#333" fill-opacity="0" stroke-width="2" x="0" y="0" width="117.5" height="126.73929457447956" class="image-rect"></rect> <svg x="0" y="0" width="117.5" height="126.73929457447956" filtersec="colorsb311520153" class="image-svg-svg primary" style="overflow: visible;"><svg viewBox="0.73260498046875 0.49000000953674316 99.8333969116211 107.6830062866211" xmlns="http://www.w3.org/2000/svg"><g fill="none" fill-rule="evenodd"><path d="M61.77 33.68l1.2-1.61a2.577 2.577 0 0 0-.023-3.107l-1.222-1.593 1.61 1.199c.924.688 2.193.68 3.107-.022l1.593-1.222-1.199 1.61a2.577 2.577 0 0 0 .022 3.107l1.222 1.593-1.61-1.2a2.576 2.576 0 0 0-3.107.023L61.77 33.68z" fill="#F29700"></path><path d="M69.716 6.98l.59-.793a1.269 1.269 0 0 0-.01-1.53l-.603-.784.793.59c.455.339 1.08.334 1.53-.011l.785-.602-.59.793a1.269 1.269 0 0 0 .01 1.53l.602.785-.793-.59a1.269 1.269 0 0 0-1.53.01l-.784.602zM51.703 47.043l.59-.793a1.269 1.269 0 0 0-.01-1.53l-.602-.784.792.59c.455.34 1.08.335 1.53-.01l.785-.602-.59.792a1.269 1.269 0 0 0 .01 1.53l.602.785-.793-.59a1.269 1.269 0 0 0-1.53.01l-.784.602z" fill="#2EA7DF"></path><path d="M20.13 10.341l1.86-2.496a3.994 3.994 0 0 0-.035-4.817L20.061.558l2.496 1.86a3.994 3.994 0 0 0 4.817-.035L29.844.49l-1.86 2.496a3.994 3.994 0 0 0 .035 4.817l1.894 2.47-2.496-1.86a3.994 3.994 0 0 0-4.817.035l-2.47 1.894z" fill="#F29700"></path><path d="M14.62 70.058c0-25.882 20.98-46.863 46.862-46.863 6.63 0 12.94 1.378 18.657 3.862a46.401 46.401 0 0 0-22.164-5.598c-25.742 0-46.61 20.868-46.61 46.61 0 17.062 9.17 31.982 22.848 40.104C22.35 99.67 14.62 85.767 14.62 70.058" fill="#2EA7DF"></path><path d="M2.324 69.02c0-29.91 24.247-54.158 54.157-54.158A53.918 53.918 0 0 1 90.021 26.5c1.876 1.482 2.335 4.183.98 6.152-.035.05-.07.1-.107.15l-2.27 3.046 3.015-2.312a4.876 4.876 0 0 1 5.88-.042l3.047 2.269-2.313-3.015a4.875 4.875 0 0 1-.042-5.88l2.27-3.047-3.015 2.313a4.92 4.92 0 0 1-.147.109c-1.819 1.29-4.303 1.073-5.951-.43-9.624-8.78-22.425-14.135-36.48-14.135C24.949 11.677.62 36.099.733 66.04c.035 9.255 2.39 17.963 6.516 25.571A53.955 53.955 0 0 1 2.324 69.02" fill="#F29700"></path></g></svg></svg> <!----></g></g> <g transform="translate(31.59607696533203,47.30348587036133)"><g data-gra="path-name" fill-rule="" class="tp-name" transform="translate(0,0)"><g transform="scale(1)"><g><path d="M23.45-36.74L23.45-36.74 23.45-36.74Q23.45-30.87 24.07-24.89L24.07-24.89Q30.22-25.67 36.29-26.73L36.29-26.73Q37.15-26.86 37.54-26.3 37.93-25.75 37.76-25.09 37.6-24.44 36.74-24.23L36.74-24.23Q30.67-22.92 24.44-21.89L24.44-21.89Q24.89-18.37 25.67-14.88L25.67-14.88Q31.04-15.87 36.16-17.06L36.16-17.06Q37.06-17.22 37.47-16.71 37.88-16.2 37.74-15.52 37.6-14.84 36.78-14.6L36.78-14.6Q31.65-13.2 26.36-12.01L26.36-12.01Q27.59-7.26 29.56-2.83L29.56-2.83Q32.51-5.7 35.05-8.86L35.05-8.86Q35.51-9.35 36.14-9.43 36.78-9.51 37.31-9.1L37.31-9.1Q37.84-8.65 37.93-8.02 38.01-7.38 37.6-6.81L37.6-6.81Q34.6-3.12 30.96 0.08L30.96 0.08Q33.83 5.7 38.29 10.37L38.29 10.37Q38.75 10.87 38.75 11.52 38.75 12.18 38.25 12.67L38.25 12.67Q37.72 13.16 37.06 13.12L37.06 13.12Q36.45 13.08 35.96 12.63L35.96 12.63Q31.41 7.87 28.45 2.17L28.45 2.17Q21.2 7.91 13 11.6L13 11.6Q13 11.6 13 11.6L13 11.6Q13 11.6 13 11.6L13 11.6Q12.96 11.6 12.96 11.6L12.96 11.6Q12.92 11.6 12.92 11.6L12.92 11.6Q12.18 11.85 11.71 11.52 11.23 11.19 11.15 10.6 11.07 10 11.56 9.55L11.56 9.55Q11.69 9.43 11.81 9.35L11.81 9.35Q11.81 9.35 11.85 9.35L11.85 9.35Q11.85 9.31 11.89 9.31L11.89 9.31Q11.93 9.27 11.97 9.27L11.97 9.27Q20.13 5.45 27.06-0.57L27.06-0.57Q24.68-5.74 23.29-11.32L23.29-11.32Q18.25-10.25 13.12-9.51L13.12-9.51Q11.93-9.43 11.42-10.15 10.91-10.87 11.17-11.69 11.44-12.51 12.59-12.71L12.59-12.71Q17.51-13.41 22.59-14.31L22.59-14.31Q21.85-17.84 21.36-21.44L21.36-21.44Q17.18-20.83 12.96-20.46L12.96-20.46Q11.77-20.38 11.3-21.14 10.82-21.89 11.11-22.69 11.4-23.49 12.59-23.66L12.59-23.66Q16.77-24.03 21.03-24.52L21.03-24.52Q20.42-30.67 20.42-36.74L20.42-36.74Q20.5-37.72 21.22-38.07 21.94-38.42 22.65-38.09 23.37-37.76 23.45-36.74ZM8.36-16.61L8.36-16.61 8.36-16.61Q7.79-16.2 7.15-16.26 6.52-16.32 6.07-16.85L6.07-16.85Q5.21-17.96 4.43-19.11L4.43-19.11Q3.77-20.05 3.12-20.95L3.12-20.95Q2.58-21.61 2.83-22.22 3.08-22.84 3.71-23.02 4.35-23.21 4.96-22.59L4.96-22.59Q5.33-22.22 5.74-21.85L5.74-21.85Q7.26-20.46 8.57-18.9L8.57-18.9Q9.02-18.37 8.94-17.71 8.86-17.06 8.36-16.61ZM5.62-35.55L5.62-35.55 5.62-35.55Q5.99-35.18 6.36-34.81L6.36-34.81Q7.91-33.41 9.22-31.86L9.22-31.86Q9.68-31.32 9.59-30.69 9.51-30.05 9.02-29.6L9.02-29.6Q8.45-29.15 7.81-29.23 7.18-29.32 6.72-29.85L6.72-29.85Q5.86-30.91 5.08-32.06L5.08-32.06Q4.43-33.01 3.77-33.91L3.77-33.91Q3.24-34.6 3.49-35.2 3.73-35.79 4.37-35.98 5-36.16 5.62-35.55ZM4.71 12.55L4.71 12.55 4.71 12.55Q4.18 13.2 3.55 13.1 2.91 13 2.58 12.42 2.25 11.85 2.71 11.11L2.71 11.11Q4.31 8.86 4.78 6.19 5.25 3.53 5.25 0.45L5.25 0.45 5.25-9.1Q5.25-9.76 5.72-10.23 6.19-10.7 6.85-10.7L6.85-10.7Q7.5-10.7 8-10.23 8.49-9.76 8.49-9.1L8.49-9.1 8.49 0.45Q8.49 4.02 7.65 6.87 6.81 9.72 4.71 12.55ZM34.07-29.4L34.07-29.4 34.07-29.4Q33.54-28.99 32.88-29.07 32.23-29.15 31.82-29.73L31.82-29.73Q31-30.87 30.22-32.1L30.22-32.1Q29.36-33.46 28.37-34.73L28.37-34.73Q27.96-35.38 28.21-35.96 28.45-36.53 29.05-36.72 29.64-36.9 30.22-36.37L30.22-36.37Q32.47-34.15 34.4-31.65L34.4-31.65Q34.81-31.08 34.73-30.44 34.65-29.81 34.07-29.4ZM63.26 10.82L78.6 10.82 78.6 10.82Q79.09 10.82 79.42 11.15 79.75 11.48 79.75 11.97L79.75 11.97Q79.75 12.46 79.42 12.79 79.09 13.12 78.6 13.12L78.6 13.12 44.65 13.12Q44.16 13.12 43.83 12.79 43.5 12.46 43.5 11.97L43.5 11.97Q43.5 11.48 43.83 11.15 44.16 10.82 44.65 10.82L44.65 10.82 59.98 10.82Q59.98 10.82 59.98 10.82L59.98 10.82 59.98 4.39 46.78 4.39Q46.29 4.39 45.94 4.04 45.59 3.69 45.59 3.24L45.59 3.24Q45.59 2.75 45.94 2.4 46.29 2.05 46.78 2.05L46.78 2.05 59.98 2.05 59.98-2.62Q59.98-3.28 60.48-3.75 60.97-4.22 61.62-4.22L61.62-4.22Q62.28-4.22 62.77-3.73 63.26-3.24 63.26-2.58L63.26-2.58 63.26 2.05 76.47 2.05Q76.96 2.05 77.31 2.4 77.65 2.75 77.65 3.24L77.65 3.24Q77.65 3.69 77.31 4.04 76.96 4.39 76.47 4.39L76.47 4.39 63.26 4.39 63.26 10.82Q63.26 10.82 63.26 10.82L63.26 10.82Q63.26 10.82 63.26 10.82L63.26 10.82ZM48.95-24.89L48.95-24.89 48.95-24.89 60.02-24.89 60.02-32.84 47.81-32.84 47.81-23.74Q47.81-24.23 48.13-24.56 48.46-24.89 48.95-24.89ZM63.26-24.89L75.52-24.89 75.52-24.89 75.52-32.84 63.26-32.84 63.26-24.89ZM79.54-12.83L79.54-12.83 79.54-12.83Q79.54-12.34 79.19-11.99 78.84-11.64 78.35-11.64L78.35-11.64 44.9-11.64Q44.4-11.64 44.05-11.99 43.71-12.34 43.71-12.83L43.71-12.83Q43.71-13.28 44.05-13.63 44.4-13.98 44.9-13.98L44.9-13.98 60.02-13.98 60.02-17.1 48.01-17.1Q47.52-17.1 47.19-17.45 46.86-17.79 46.86-18.29L46.86-18.29Q46.86-18.78 47.19-19.11 47.52-19.43 48.01-19.43L48.01-19.43 60.02-19.43 60.02-22.59 47.81-22.59Q47.81-21.89 47.33-21.42 46.86-20.95 46.17-20.95L46.17-20.95Q45.51-20.95 45.02-21.42 44.53-21.89 44.53-22.59L44.53-22.59 44.53-34.93Q44.53-35.59 45.02-36.06 45.51-36.53 46.17-36.53L46.17-36.53Q46.86-36.53 47.33-36.06 47.81-35.59 47.81-34.89L47.81-34.89 47.81-33.99Q47.81-34.48 48.13-34.81 48.46-35.14 48.95-35.14L48.95-35.14 75.52-35.14 75.52-35.18Q75.52-35.83 75.99-36.31 76.47-36.78 77.12-36.78L77.12-36.78Q77.82-36.78 78.29-36.29 78.76-35.79 78.76-35.14L78.76-35.14 78.76-22.59Q78.76-21.89 78.29-21.42 77.82-20.95 77.12-20.95L77.12-20.95Q76.47-20.95 75.99-21.42 75.52-21.89 75.52-22.59L75.52-22.59 63.26-22.59 63.26-19.43 75.23-19.43Q75.69-19.43 76.03-19.11 76.38-18.78 76.38-18.29L76.38-18.29Q76.38-17.79 76.03-17.45 75.69-17.1 75.23-17.1L75.23-17.1 63.26-17.1 63.26-13.98 78.35-13.98Q78.84-13.98 79.19-13.63 79.54-13.28 79.54-12.83ZM53.67-31.94L56.33-27.43 56.33-27.43Q56.62-26.81 56.4-26.2 56.17-25.58 55.55-25.26L55.55-25.26Q54.94-24.97 54.33-25.19 53.71-25.42 53.42-26.04L53.42-26.04Q53.26-26.4 52.89-27.31L52.89-27.31Q52.56-28.13 52.17-29.11 51.78-30.09 51.45-30.91L51.45-30.91Q51.25-31.49 51.45-31.9 51.66-32.31 52.07-32.51L52.07-32.51Q52.52-32.72 52.97-32.59 53.42-32.47 53.67-31.94L53.67-31.94ZM67.57-25.21L67.57-25.21 67.57-25.21Q67.16-25.42 66.93-25.85 66.71-26.28 66.91-26.81L66.91-26.81Q67.28-27.72 67.71-28.8 68.14-29.89 68.51-30.75L68.51-30.75Q68.76-31.41 68.88-31.73L68.88-31.73Q69.21-32.35 69.82-32.55 70.44-32.76 71.05-32.47L71.05-32.47Q71.67-32.14 71.87-31.53 72.08-30.91 71.79-30.3L71.79-30.3 69.17-25.79Q68.88-25.26 68.43-25.15 67.98-25.05 67.57-25.21ZM49.98-10.21L49.98-10.21 49.98-10.21Q49.98-10.21 49.98-10.17L49.98-10.17Q50.02-10.17 50.02-10.13L50.02-10.13Q50.84-9.27 50.31-8.16L50.31-8.16Q48.3-5 45.8-2.25L45.8-2.25Q45.18-1.64 44.53-1.78 43.87-1.93 43.58-2.52 43.3-3.12 43.79-3.81L43.79-3.81Q45.22-5.82 46.41-7.95L46.41-7.95Q46.86-8.77 47.36-9.59L47.36-9.59Q47.52-10.04 47.93-10.33L47.93-10.33Q47.93-10.33 47.93-10.33L47.93-10.33Q47.97-10.33 47.97-10.33L47.97-10.33Q48.17-10.5 48.46-10.54L48.46-10.54Q48.54-10.58 48.63-10.58L48.63-10.58Q48.67-10.62 48.75-10.62L48.75-10.62Q48.79-10.66 48.87-10.66L48.87-10.66Q48.91-10.66 48.95-10.62L48.95-10.62Q48.95-10.62 48.99-10.62L48.99-10.62Q49.16-10.62 49.36-10.54L49.36-10.54Q49.36-10.54 49.36-10.54L49.36-10.54Q49.49-10.5 49.57-10.46L49.57-10.46Q49.61-10.46 49.65-10.46L49.65-10.46Q49.69-10.41 49.73-10.41L49.73-10.41Q49.81-10.33 49.9-10.29L49.9-10.29Q49.94-10.25 49.98-10.21ZM54.37-10.33L54.37-10.33 54.37-10.33Q54.82-10.54 55.27-10.41 55.72-10.29 55.97-9.8L55.97-9.8 59.08-4.26Q59.37-3.61 59.16-3.01 58.96-2.42 58.34-2.09L58.34-2.09Q57.73-1.8 57.11-2.01 56.5-2.21 56.17-2.83L56.17-2.83Q55.97-3.4 55.27-5L55.27-5Q54.86-6.03 54.45-7.03 54.04-8.04 53.75-8.73L53.75-8.73Q53.55-9.31 53.75-9.72 53.96-10.13 54.37-10.33ZM76.67-2.83L76.67-2.83 76.67-2.83Q76.59-3.08 76.32-3.71 76.06-4.35 75.73-5.17L75.73-5.17Q75.32-6.15 74.91-7.11 74.5-8.08 74.25-8.73L74.25-8.73Q74.05-9.31 74.25-9.72 74.46-10.13 74.87-10.33L74.87-10.33Q75.32-10.54 75.77-10.41 76.22-10.29 76.47-9.8L76.47-9.8 79.58-4.26Q79.87-3.61 79.66-3.01 79.46-2.42 78.84-2.09L78.84-2.09Q78.23-1.8 77.61-2.01 77-2.21 76.67-2.83ZM64.62-10.33L64.62-10.33 64.62-10.33Q65.07-10.54 65.52-10.41 65.97-10.29 66.22-9.8L66.22-9.8 69.33-4.26Q69.62-3.61 69.41-3.01 69.21-2.42 68.59-2.09L68.59-2.09Q67.98-1.8 67.36-2.01 66.75-2.21 66.42-2.83L66.42-2.83Q66.22-3.4 65.52-5L65.52-5Q65.11-6.03 64.7-7.03 64.29-8.04 64-8.73L64-8.73Q63.8-9.31 64-9.72 64.21-10.13 64.62-10.33ZM118.45 2.71L118.45 2.71 118.45 2.71Q118.45 1.93 119.02 1.66 119.6 1.39 120.17 1.66 120.75 1.93 120.75 2.71L120.75 2.71 120.75 10.78Q120.75 11.77 120.07 12.46 119.39 13.16 118.41 13.16L118.41 13.16Q113.69 13.16 107.87 13.16L107.87 13.16Q105.33 13.16 103.03 13.16L103.03 13.16Q101.47 13.2 100.02 12.67 98.56 12.14 97.58 10.87L97.58 10.87Q96.88 9.84 96.62 8.59 96.35 7.34 96.35 5.9L96.35 5.9Q96.47-0.94 98.73-7.24 100.98-13.53 104.51-19.39 108.03-25.26 111.85-30.01L111.85-30.01Q112.75-31.37 113.65-32.72L113.65-32.72Q105.78-32.72 98.56-32.72L98.56-32.72Q98.07-32.72 97.74-33.07 97.42-33.41 97.42-33.91L97.42-33.91Q97.42-34.36 97.74-34.71 98.07-35.05 98.56-35.05L98.56-35.05Q106.19-35.05 115.21-35.05L115.21-35.05Q115.33-35.26 115.46-35.47L115.46-35.47Q115.62-35.71 115.78-35.92L115.78-35.92Q116.4-36.82 117.24-36.72 118.08-36.61 118.55-35.92 119.02-35.22 118.53-34.23L118.53-34.23Q115.66-30.09 112.3-25.17L112.3-25.17Q109.1-20.38 106.19-15.44 103.28-10.5 101.43-5.21 99.59 0.08 99.59 5.9L99.59 5.9Q99.59 7.87 100.2 8.94L100.2 8.94Q100.66 9.43 101.5 9.66 102.34 9.88 102.95 9.88L102.95 9.88Q106.15 9.88 110 9.88L110 9.88Q113.9 9.88 117.1 9.88L117.1 9.88Q117.63 9.88 117.98 9.53 118.33 9.18 118.41 8.69L118.41 8.69Q118.45 7.95 118.45 6.6 118.45 5.25 118.45 4.02L118.45 4.02Q118.45 3.2 118.45 2.71ZM88.31-25.79L88.31-25.79 88.31-25.79Q89.01-25.71 89.4-25.19 89.79-24.68 89.75-23.98L89.75-23.98Q88.89-18.12 86.88-12.59L86.88-12.59Q86.55-11.81 85.94-11.71 85.32-11.6 84.85-12.01 84.38-12.42 84.5-13.2L84.5-13.2Q85.77-18.78 86.51-24.39L86.51-24.39Q86.63-25.09 87.15-25.48 87.66-25.87 88.31-25.79ZM90.24-36.61L90.24-36.61 90.24-36.61Q90.24-37.31 90.73-37.76 91.22-38.21 91.88-38.21L91.88-38.21Q92.58-38.21 93.05-37.74 93.52-37.27 93.52-36.61L93.52-36.61Q93.52-25.91 93.52-15.21L93.52-15.21Q93.52-9.88 93.52-4.51L93.52-4.51Q93.52 3.49 93.52 11.52L93.52 11.52Q93.52 12.18 93.05 12.67 92.58 13.16 91.88 13.16L91.88 13.16Q91.22 13.16 90.73 12.67 90.24 12.18 90.24 11.52L90.24 11.52Q90.24-12.55 90.24-36.61ZM97.25-15.13L97.25-15.13 97.25-15.13Q96.56-15.01 96-15.33 95.45-15.66 95.28-16.32L95.28-16.32Q94.92-18.16 94.55-20.13L94.55-20.13Q94.3-21.61 94.01-23.04L94.01-23.04Q93.89-23.86 94.36-24.25 94.83-24.64 95.47-24.52 96.1-24.39 96.39-23.66L96.39-23.66Q97.58-20.38 98.4-17.14L98.4-17.14Q98.56-16.44 98.24-15.89 97.91-15.33 97.25-15.13Z" transform="translate(-2.4421517848968506, 38.250144958496094)"></path></g> <!----> <!----> <!----> <!----> <!----> <!----> <!----></g></g> </g></g></g><mask id="a8d84b21-e287-476a-8642-af7487bed155"><g fill="white"><g><rect fill-opacity="1" stroke-width="2" x="0" y="0" width="117.5" height="126.73929457447956" class="image-rect"></rect> <svg x="0" y="0" width="117.5" height="126.73929457447956" filtersec="colorsb311520153" class="image-svg-svg primary" style="overflow: visible;"><svg viewBox="0.73260498046875 0.49000000953674316 99.8333969116211 107.6830062866211" xmlns="http://www.w3.org/2000/svg"><g fill="none" fill-rule="evenodd"><path d="M61.77 33.68l1.2-1.61a2.577 2.577 0 0 0-.023-3.107l-1.222-1.593 1.61 1.199c.924.688 2.193.68 3.107-.022l1.593-1.222-1.199 1.61a2.577 2.577 0 0 0 .022 3.107l1.222 1.593-1.61-1.2a2.576 2.576 0 0 0-3.107.023L61.77 33.68z"></path><path d="M69.716 6.98l.59-.793a1.269 1.269 0 0 0-.01-1.53l-.603-.784.793.59c.455.339 1.08.334 1.53-.011l.785-.602-.59.793a1.269 1.269 0 0 0 .01 1.53l.602.785-.793-.59a1.269 1.269 0 0 0-1.53.01l-.784.602zM51.703 47.043l.59-.793a1.269 1.269 0 0 0-.01-1.53l-.602-.784.792.59c.455.34 1.08.335 1.53-.01l.785-.602-.59.792a1.269 1.269 0 0 0 .01 1.53l.602.785-.793-.59a1.269 1.269 0 0 0-1.53.01l-.784.602z"></path><path d="M20.13 10.341l1.86-2.496a3.994 3.994 0 0 0-.035-4.817L20.061.558l2.496 1.86a3.994 3.994 0 0 0 4.817-.035L29.844.49l-1.86 2.496a3.994 3.994 0 0 0 .035 4.817l1.894 2.47-2.496-1.86a3.994 3.994 0 0 0-4.817.035l-2.47 1.894z"></path><path d="M14.62 70.058c0-25.882 20.98-46.863 46.862-46.863 6.63 0 12.94 1.378 18.657 3.862a46.401 46.401 0 0 0-22.164-5.598c-25.742 0-46.61 20.868-46.61 46.61 0 17.062 9.17 31.982 22.848 40.104C22.35 99.67 14.62 85.767 14.62 70.058"></path><path d="M2.324 69.02c0-29.91 24.247-54.158 54.157-54.158A53.918 53.918 0 0 1 90.021 26.5c1.876 1.482 2.335 4.183.98 6.152-.035.05-.07.1-.107.15l-2.27 3.046 3.015-2.312a4.876 4.876 0 0 1 5.88-.042l3.047 2.269-2.313-3.015a4.875 4.875 0 0 1-.042-5.88l2.27-3.047-3.015 2.313a4.92 4.92 0 0 1-.147.109c-1.819 1.29-4.303 1.073-5.951-.43-9.624-8.78-22.425-14.135-36.48-14.135C24.949 11.677.62 36.099.733 66.04c.035 9.255 2.39 17.963 6.516 25.571A53.955 53.955 0 0 1 2.324 69.02"></path></g></svg></svg> </g></g> <g transform="translate(31.59607696533203,47.30348587036133)" fill="black" stroke="black" stroke-width="6" stroke-linejoin="round"><g data-gra="path-name" fill-rule="" class="tp-name" transform="translate(0,0)"><g transform="scale(1)"><g><path d="M23.45-36.74L23.45-36.74 23.45-36.74Q23.45-30.87 24.07-24.89L24.07-24.89Q30.22-25.67 36.29-26.73L36.29-26.73Q37.15-26.86 37.54-26.3 37.93-25.75 37.76-25.09 37.6-24.44 36.74-24.23L36.74-24.23Q30.67-22.92 24.44-21.89L24.44-21.89Q24.89-18.37 25.67-14.88L25.67-14.88Q31.04-15.87 36.16-17.06L36.16-17.06Q37.06-17.22 37.47-16.71 37.88-16.2 37.74-15.52 37.6-14.84 36.78-14.6L36.78-14.6Q31.65-13.2 26.36-12.01L26.36-12.01Q27.59-7.26 29.56-2.83L29.56-2.83Q32.51-5.7 35.05-8.86L35.05-8.86Q35.51-9.35 36.14-9.43 36.78-9.51 37.31-9.1L37.31-9.1Q37.84-8.65 37.93-8.02 38.01-7.38 37.6-6.81L37.6-6.81Q34.6-3.12 30.96 0.08L30.96 0.08Q33.83 5.7 38.29 10.37L38.29 10.37Q38.75 10.87 38.75 11.52 38.75 12.18 38.25 12.67L38.25 12.67Q37.72 13.16 37.06 13.12L37.06 13.12Q36.45 13.08 35.96 12.63L35.96 12.63Q31.41 7.87 28.45 2.17L28.45 2.17Q21.2 7.91 13 11.6L13 11.6Q13 11.6 13 11.6L13 11.6Q13 11.6 13 11.6L13 11.6Q12.96 11.6 12.96 11.6L12.96 11.6Q12.92 11.6 12.92 11.6L12.92 11.6Q12.18 11.85 11.71 11.52 11.23 11.19 11.15 10.6 11.07 10 11.56 9.55L11.56 9.55Q11.69 9.43 11.81 9.35L11.81 9.35Q11.81 9.35 11.85 9.35L11.85 9.35Q11.85 9.31 11.89 9.31L11.89 9.31Q11.93 9.27 11.97 9.27L11.97 9.27Q20.13 5.45 27.06-0.57L27.06-0.57Q24.68-5.74 23.29-11.32L23.29-11.32Q18.25-10.25 13.12-9.51L13.12-9.51Q11.93-9.43 11.42-10.15 10.91-10.87 11.17-11.69 11.44-12.51 12.59-12.71L12.59-12.71Q17.51-13.41 22.59-14.31L22.59-14.31Q21.85-17.84 21.36-21.44L21.36-21.44Q17.18-20.83 12.96-20.46L12.96-20.46Q11.77-20.38 11.3-21.14 10.82-21.89 11.11-22.69 11.4-23.49 12.59-23.66L12.59-23.66Q16.77-24.03 21.03-24.52L21.03-24.52Q20.42-30.67 20.42-36.74L20.42-36.74Q20.5-37.72 21.22-38.07 21.94-38.42 22.65-38.09 23.37-37.76 23.45-36.74ZM8.36-16.61L8.36-16.61 8.36-16.61Q7.79-16.2 7.15-16.26 6.52-16.32 6.07-16.85L6.07-16.85Q5.21-17.96 4.43-19.11L4.43-19.11Q3.77-20.05 3.12-20.95L3.12-20.95Q2.58-21.61 2.83-22.22 3.08-22.84 3.71-23.02 4.35-23.21 4.96-22.59L4.96-22.59Q5.33-22.22 5.74-21.85L5.74-21.85Q7.26-20.46 8.57-18.9L8.57-18.9Q9.02-18.37 8.94-17.71 8.86-17.06 8.36-16.61ZM5.62-35.55L5.62-35.55 5.62-35.55Q5.99-35.18 6.36-34.81L6.36-34.81Q7.91-33.41 9.22-31.86L9.22-31.86Q9.68-31.32 9.59-30.69 9.51-30.05 9.02-29.6L9.02-29.6Q8.45-29.15 7.81-29.23 7.18-29.32 6.72-29.85L6.72-29.85Q5.86-30.91 5.08-32.06L5.08-32.06Q4.43-33.01 3.77-33.91L3.77-33.91Q3.24-34.6 3.49-35.2 3.73-35.79 4.37-35.98 5-36.16 5.62-35.55ZM4.71 12.55L4.71 12.55 4.71 12.55Q4.18 13.2 3.55 13.1 2.91 13 2.58 12.42 2.25 11.85 2.71 11.11L2.71 11.11Q4.31 8.86 4.78 6.19 5.25 3.53 5.25 0.45L5.25 0.45 5.25-9.1Q5.25-9.76 5.72-10.23 6.19-10.7 6.85-10.7L6.85-10.7Q7.5-10.7 8-10.23 8.49-9.76 8.49-9.1L8.49-9.1 8.49 0.45Q8.49 4.02 7.65 6.87 6.81 9.72 4.71 12.55ZM34.07-29.4L34.07-29.4 34.07-29.4Q33.54-28.99 32.88-29.07 32.23-29.15 31.82-29.73L31.82-29.73Q31-30.87 30.22-32.1L30.22-32.1Q29.36-33.46 28.37-34.73L28.37-34.73Q27.96-35.38 28.21-35.96 28.45-36.53 29.05-36.72 29.64-36.9 30.22-36.37L30.22-36.37Q32.47-34.15 34.4-31.65L34.4-31.65Q34.81-31.08 34.73-30.44 34.65-29.81 34.07-29.4ZM63.26 10.82L78.6 10.82 78.6 10.82Q79.09 10.82 79.42 11.15 79.75 11.48 79.75 11.97L79.75 11.97Q79.75 12.46 79.42 12.79 79.09 13.12 78.6 13.12L78.6 13.12 44.65 13.12Q44.16 13.12 43.83 12.79 43.5 12.46 43.5 11.97L43.5 11.97Q43.5 11.48 43.83 11.15 44.16 10.82 44.65 10.82L44.65 10.82 59.98 10.82Q59.98 10.82 59.98 10.82L59.98 10.82 59.98 4.39 46.78 4.39Q46.29 4.39 45.94 4.04 45.59 3.69 45.59 3.24L45.59 3.24Q45.59 2.75 45.94 2.4 46.29 2.05 46.78 2.05L46.78 2.05 59.98 2.05 59.98-2.62Q59.98-3.28 60.48-3.75 60.97-4.22 61.62-4.22L61.62-4.22Q62.28-4.22 62.77-3.73 63.26-3.24 63.26-2.58L63.26-2.58 63.26 2.05 76.47 2.05Q76.96 2.05 77.31 2.4 77.65 2.75 77.65 3.24L77.65 3.24Q77.65 3.69 77.31 4.04 76.96 4.39 76.47 4.39L76.47 4.39 63.26 4.39 63.26 10.82Q63.26 10.82 63.26 10.82L63.26 10.82Q63.26 10.82 63.26 10.82L63.26 10.82ZM48.95-24.89L48.95-24.89 48.95-24.89 60.02-24.89 60.02-32.84 47.81-32.84 47.81-23.74Q47.81-24.23 48.13-24.56 48.46-24.89 48.95-24.89ZM63.26-24.89L75.52-24.89 75.52-24.89 75.52-32.84 63.26-32.84 63.26-24.89ZM79.54-12.83L79.54-12.83 79.54-12.83Q79.54-12.34 79.19-11.99 78.84-11.64 78.35-11.64L78.35-11.64 44.9-11.64Q44.4-11.64 44.05-11.99 43.71-12.34 43.71-12.83L43.71-12.83Q43.71-13.28 44.05-13.63 44.4-13.98 44.9-13.98L44.9-13.98 60.02-13.98 60.02-17.1 48.01-17.1Q47.52-17.1 47.19-17.45 46.86-17.79 46.86-18.29L46.86-18.29Q46.86-18.78 47.19-19.11 47.52-19.43 48.01-19.43L48.01-19.43 60.02-19.43 60.02-22.59 47.81-22.59Q47.81-21.89 47.33-21.42 46.86-20.95 46.17-20.95L46.17-20.95Q45.51-20.95 45.02-21.42 44.53-21.89 44.53-22.59L44.53-22.59 44.53-34.93Q44.53-35.59 45.02-36.06 45.51-36.53 46.17-36.53L46.17-36.53Q46.86-36.53 47.33-36.06 47.81-35.59 47.81-34.89L47.81-34.89 47.81-33.99Q47.81-34.48 48.13-34.81 48.46-35.14 48.95-35.14L48.95-35.14 75.52-35.14 75.52-35.18Q75.52-35.83 75.99-36.31 76.47-36.78 77.12-36.78L77.12-36.78Q77.82-36.78 78.29-36.29 78.76-35.79 78.76-35.14L78.76-35.14 78.76-22.59Q78.76-21.89 78.29-21.42 77.82-20.95 77.12-20.95L77.12-20.95Q76.47-20.95 75.99-21.42 75.52-21.89 75.52-22.59L75.52-22.59 63.26-22.59 63.26-19.43 75.23-19.43Q75.69-19.43 76.03-19.11 76.38-18.78 76.38-18.29L76.38-18.29Q76.38-17.79 76.03-17.45 75.69-17.1 75.23-17.1L75.23-17.1 63.26-17.1 63.26-13.98 78.35-13.98Q78.84-13.98 79.19-13.63 79.54-13.28 79.54-12.83ZM53.67-31.94L56.33-27.43 56.33-27.43Q56.62-26.81 56.4-26.2 56.17-25.58 55.55-25.26L55.55-25.26Q54.94-24.97 54.33-25.19 53.71-25.42 53.42-26.04L53.42-26.04Q53.26-26.4 52.89-27.31L52.89-27.31Q52.56-28.13 52.17-29.11 51.78-30.09 51.45-30.91L51.45-30.91Q51.25-31.49 51.45-31.9 51.66-32.31 52.07-32.51L52.07-32.51Q52.52-32.72 52.97-32.59 53.42-32.47 53.67-31.94L53.67-31.94ZM67.57-25.21L67.57-25.21 67.57-25.21Q67.16-25.42 66.93-25.85 66.71-26.28 66.91-26.81L66.91-26.81Q67.28-27.72 67.71-28.8 68.14-29.89 68.51-30.75L68.51-30.75Q68.76-31.41 68.88-31.73L68.88-31.73Q69.21-32.35 69.82-32.55 70.44-32.76 71.05-32.47L71.05-32.47Q71.67-32.14 71.87-31.53 72.08-30.91 71.79-30.3L71.79-30.3 69.17-25.79Q68.88-25.26 68.43-25.15 67.98-25.05 67.57-25.21ZM49.98-10.21L49.98-10.21 49.98-10.21Q49.98-10.21 49.98-10.17L49.98-10.17Q50.02-10.17 50.02-10.13L50.02-10.13Q50.84-9.27 50.31-8.16L50.31-8.16Q48.3-5 45.8-2.25L45.8-2.25Q45.18-1.64 44.53-1.78 43.87-1.93 43.58-2.52 43.3-3.12 43.79-3.81L43.79-3.81Q45.22-5.82 46.41-7.95L46.41-7.95Q46.86-8.77 47.36-9.59L47.36-9.59Q47.52-10.04 47.93-10.33L47.93-10.33Q47.93-10.33 47.93-10.33L47.93-10.33Q47.97-10.33 47.97-10.33L47.97-10.33Q48.17-10.5 48.46-10.54L48.46-10.54Q48.54-10.58 48.63-10.58L48.63-10.58Q48.67-10.62 48.75-10.62L48.75-10.62Q48.79-10.66 48.87-10.66L48.87-10.66Q48.91-10.66 48.95-10.62L48.95-10.62Q48.95-10.62 48.99-10.62L48.99-10.62Q49.16-10.62 49.36-10.54L49.36-10.54Q49.36-10.54 49.36-10.54L49.36-10.54Q49.49-10.5 49.57-10.46L49.57-10.46Q49.61-10.46 49.65-10.46L49.65-10.46Q49.69-10.41 49.73-10.41L49.73-10.41Q49.81-10.33 49.9-10.29L49.9-10.29Q49.94-10.25 49.98-10.21ZM54.37-10.33L54.37-10.33 54.37-10.33Q54.82-10.54 55.27-10.41 55.72-10.29 55.97-9.8L55.97-9.8 59.08-4.26Q59.37-3.61 59.16-3.01 58.96-2.42 58.34-2.09L58.34-2.09Q57.73-1.8 57.11-2.01 56.5-2.21 56.17-2.83L56.17-2.83Q55.97-3.4 55.27-5L55.27-5Q54.86-6.03 54.45-7.03 54.04-8.04 53.75-8.73L53.75-8.73Q53.55-9.31 53.75-9.72 53.96-10.13 54.37-10.33ZM76.67-2.83L76.67-2.83 76.67-2.83Q76.59-3.08 76.32-3.71 76.06-4.35 75.73-5.17L75.73-5.17Q75.32-6.15 74.91-7.11 74.5-8.08 74.25-8.73L74.25-8.73Q74.05-9.31 74.25-9.72 74.46-10.13 74.87-10.33L74.87-10.33Q75.32-10.54 75.77-10.41 76.22-10.29 76.47-9.8L76.47-9.8 79.58-4.26Q79.87-3.61 79.66-3.01 79.46-2.42 78.84-2.09L78.84-2.09Q78.23-1.8 77.61-2.01 77-2.21 76.67-2.83ZM64.62-10.33L64.62-10.33 64.62-10.33Q65.07-10.54 65.52-10.41 65.97-10.29 66.22-9.8L66.22-9.8 69.33-4.26Q69.62-3.61 69.41-3.01 69.21-2.42 68.59-2.09L68.59-2.09Q67.98-1.8 67.36-2.01 66.75-2.21 66.42-2.83L66.42-2.83Q66.22-3.4 65.52-5L65.52-5Q65.11-6.03 64.7-7.03 64.29-8.04 64-8.73L64-8.73Q63.8-9.31 64-9.72 64.21-10.13 64.62-10.33ZM118.45 2.71L118.45 2.71 118.45 2.71Q118.45 1.93 119.02 1.66 119.6 1.39 120.17 1.66 120.75 1.93 120.75 2.71L120.75 2.71 120.75 10.78Q120.75 11.77 120.07 12.46 119.39 13.16 118.41 13.16L118.41 13.16Q113.69 13.16 107.87 13.16L107.87 13.16Q105.33 13.16 103.03 13.16L103.03 13.16Q101.47 13.2 100.02 12.67 98.56 12.14 97.58 10.87L97.58 10.87Q96.88 9.84 96.62 8.59 96.35 7.34 96.35 5.9L96.35 5.9Q96.47-0.94 98.73-7.24 100.98-13.53 104.51-19.39 108.03-25.26 111.85-30.01L111.85-30.01Q112.75-31.37 113.65-32.72L113.65-32.72Q105.78-32.72 98.56-32.72L98.56-32.72Q98.07-32.72 97.74-33.07 97.42-33.41 97.42-33.91L97.42-33.91Q97.42-34.36 97.74-34.71 98.07-35.05 98.56-35.05L98.56-35.05Q106.19-35.05 115.21-35.05L115.21-35.05Q115.33-35.26 115.46-35.47L115.46-35.47Q115.62-35.71 115.78-35.92L115.78-35.92Q116.4-36.82 117.24-36.72 118.08-36.61 118.55-35.92 119.02-35.22 118.53-34.23L118.53-34.23Q115.66-30.09 112.3-25.17L112.3-25.17Q109.1-20.38 106.19-15.44 103.28-10.5 101.43-5.21 99.59 0.08 99.59 5.9L99.59 5.9Q99.59 7.87 100.2 8.94L100.2 8.94Q100.66 9.43 101.5 9.66 102.34 9.88 102.95 9.88L102.95 9.88Q106.15 9.88 110 9.88L110 9.88Q113.9 9.88 117.1 9.88L117.1 9.88Q117.63 9.88 117.98 9.53 118.33 9.18 118.41 8.69L118.41 8.69Q118.45 7.95 118.45 6.6 118.45 5.25 118.45 4.02L118.45 4.02Q118.45 3.2 118.45 2.71ZM88.31-25.79L88.31-25.79 88.31-25.79Q89.01-25.71 89.4-25.19 89.79-24.68 89.75-23.98L89.75-23.98Q88.89-18.12 86.88-12.59L86.88-12.59Q86.55-11.81 85.94-11.71 85.32-11.6 84.85-12.01 84.38-12.42 84.5-13.2L84.5-13.2Q85.77-18.78 86.51-24.39L86.51-24.39Q86.63-25.09 87.15-25.48 87.66-25.87 88.31-25.79ZM90.24-36.61L90.24-36.61 90.24-36.61Q90.24-37.31 90.73-37.76 91.22-38.21 91.88-38.21L91.88-38.21Q92.58-38.21 93.05-37.74 93.52-37.27 93.52-36.61L93.52-36.61Q93.52-25.91 93.52-15.21L93.52-15.21Q93.52-9.88 93.52-4.51L93.52-4.51Q93.52 3.49 93.52 11.52L93.52 11.52Q93.52 12.18 93.05 12.67 92.58 13.16 91.88 13.16L91.88 13.16Q91.22 13.16 90.73 12.67 90.24 12.18 90.24 11.52L90.24 11.52Q90.24-12.55 90.24-36.61ZM97.25-15.13L97.25-15.13 97.25-15.13Q96.56-15.01 96-15.33 95.45-15.66 95.28-16.32L95.28-16.32Q94.92-18.16 94.55-20.13L94.55-20.13Q94.3-21.61 94.01-23.04L94.01-23.04Q93.89-23.86 94.36-24.25 94.83-24.64 95.47-24.52 96.1-24.39 96.39-23.66L96.39-23.66Q97.58-20.38 98.4-17.14L98.4-17.14Q98.56-16.44 98.24-15.89 97.91-15.33 97.25-15.13Z" transform="translate(-2.4421517848968506, 38.250144958496094)"></path></g>       </g></g> <g data-gra="path-slogan" fill-rule="" class="tp-slogan" transform="translate(5,57.4129524230957)" fill="white"><rect x="0" height="1" y="2.8600001335144043" width="32.99330520629883"></rect> <rect height="1" y="2.8600001335144043" width="32.99330520629883" x="75.31454086303711"></rect> <g transform="translate(35.99330520629883,0)"><g transform="scale(1)"><path d="M5.38-4.57L5.38-4.57L4.57-4.57Q4.50-5.80 2.95-5.87L2.95-5.87Q1.51-5.84 1.51-4.75L1.51-4.75Q1.51-4.04 2.29-3.94L2.29-3.94L4.11-3.52Q5.55-3.16 5.55-1.76L5.55-1.76Q5.52 0.04 3.02 0.11L3.02 0.11Q1.65 0.11 1.09-0.46L1.09-0.46Q0.39-0.98 0.42-2.07L0.42-2.07L1.27-2.07Q1.30-0.60 3.02-0.56L3.02-0.56Q4.71-0.60 4.75-1.65L4.75-1.65Q4.89-2.53 3.34-2.81L3.34-2.81L2.00-3.09Q0.63-3.48 0.63-4.64L0.63-4.64Q0.74-6.54 2.88-6.61L2.88-6.61Q5.31-6.61 5.38-4.57ZM6.64-6.43L7.52-6.43L7.52-0.77L10.79-0.77L10.79 0L6.64 0L6.64-6.43ZM16.73-3.20L16.73-3.20Q16.59-5.73 14.48-5.87L14.48-5.87Q12.34-5.77 12.23-3.20L12.23-3.20Q12.34-0.70 14.48-0.60L14.48-0.60Q16.59-0.74 16.73-3.20ZM17.61-3.20L17.61-3.20Q17.40 0 14.48 0.11L14.48 0.11Q11.53 0 11.32-3.20L11.32-3.20Q11.50-6.54 14.48-6.61L14.48-6.61Q17.40-6.50 17.61-3.20ZM23.45-2.71L21.48-2.71L21.48-3.45L24.29-3.45L24.29 0L23.73 0L23.52-0.81Q22.78 0.07 21.41 0.11L21.41 0.11Q20.11 0.11 19.41-0.56L19.41-0.56Q18.35-1.55 18.39-3.27L18.39-3.27Q18.63-6.47 21.45-6.61L21.45-6.61Q23.84-6.47 24.19-4.50L24.19-4.50L23.34-4.50Q22.99-5.84 21.41-5.87L21.41-5.87Q19.41-5.73 19.30-3.23L19.30-3.23Q19.30-0.56 21.45-0.56L21.45-0.56Q22.22-0.56 22.78-0.98L22.78-0.98Q23.48-1.55 23.45-2.71L23.45-2.71ZM29.88 0L29.25-1.86L26.65-1.86L25.98 0L25.10 0L27.53-6.43L28.51-6.43L30.83 0L29.88 0ZM27.95-5.48L26.93-2.64L28.93-2.64L27.98-5.48L27.95-5.48ZM32.66-6.43L35.89-1.23L35.89-6.43L36.74-6.43L36.74 0L35.75 0L32.48-5.20L32.45-5.20L32.45 0L31.61 0L31.61-6.43L32.66-6.43Z" transform="translate(-0.42020089285714285, 6.609375)"></path></g></g></g></g></mask><defs v-gra="od"></defs></svg>