<svg data-v-0dd9719b="" version="1.0" xmlns="http://www.w3.org/2000/svg" xmlns:xlink="http://www.w3.org/1999/xlink" width="340px" height="250px" color-interpolation-filters="sRGB" style="margin: auto;">   <g data-v-0dd9719b="" fill="#333333" class="icon-text-wrapper icon-svg-group iconsvg" transform="translate(110.19574737548828,57.81513977050781)"><g fill="#cd8c2a" class="iconsvg-imagesvg icon_container" transform="translate(18.30425262451172,0)" mask="url(#5816abd9-0bb7-4ee3-8fed-fbbfc7b2e570)"><rect fill="#333333" fill-opacity="0" stroke-width="2" x="0" y="0" width="83" height="83" class="image-rect"></rect> <svg viewBox="0 0 60 60" x="0" y="0" width="83" height="83" class="image-svg-svg bn" style="overflow: visible;"><g hollow-target="iconBnFill" mask="url(#035646c5-9d5f-4302-8b84-fe783a653a6e)"><g><svg fill="#000000" xmlns="http://www.w3.org/2000/svg" xmlns:xlink="http://www.w3.org/1999/xlink" xml:space="preserve" version="1.1" style="shape-rendering: geometricprecision; text-rendering: geometricprecision; overflow: visible;" viewBox="0 0 249 249" x="0" y="0" fill-rule="evenodd" clip-rule="evenodd" width="60" height="60" filtersec="colorsf8818018350" filter="url(#atndO01eKNSPBgKULe379)"><g transform="scale(1, 1) skewX(0)"><defs><filter id="atndO01eKNSPBgKULe379"><feColorMatrix type="matrix" values="0 0 0 0 0.80078125  0 0 0 0 0.546875  0 0 0 0 0.1640625  0 0 0 1 0"></feColorMatrix></filter></defs><g><path class="fil0" d="M125 0c68,0 124,56 124,125 0,68 -56,124 -124,124 -69,0 -125,-56 -125,-124 0,-69 56,-125 125,-125z"></path></g></g></svg></g> <g filter="url(#colors7820865555)"><svg xmlns="http://www.w3.org/2000/svg" xmlns:xlink="http://www.w3.org/1999/xlink" viewBox="0 0 49.72566487208549 49.35266335227272" width="52" height="52" x="4" y="4" class="image-svg-letter"><path transform="translate(-3.1651554404145075 47.562890624999994)" d="M25.73-47.53L25.73-47.53Q26.58-47.74 28.83-46.55L28.83-46.55Q38.88-45.98 45.07-37.27L45.07-37.27Q51.26-27.49 48.80-17.93L48.80-17.93Q47.67-12.30 43.73-8.09L43.73-8.09Q41.77-6.26 43.95-5.20L43.95-5.20Q46.27-4.36 49.50-3.80L49.50-3.80Q51.82-4.15 52.80-3.09L52.80-3.09Q53.30-1.69 50.98-0.28L50.98-0.28Q46.20 2.25 43.95 1.69L43.95 1.69Q42.26 0.98 39.16-2.18L39.16-2.18Q37.48-3.59 35.37-2.88L35.37-2.88Q22.92 0.98 12.73-4.43L12.73-4.43Q3.94-10.69 3.38-20.60L3.38-20.60Q1.69-32.48 13.57-41.77L13.57-41.77Q17.37-44.23 23.41-46.05L23.41-46.05Q24.33-46.76 25.73-47.53ZM33.82-40.08L33.82-40.08Q22.85-44.79 12.73-34.80L12.73-34.80Q9.63-30.38 9.42-23.98L9.42-23.98Q9.28-16.31 13.15-11.46L13.15-11.46Q15.47-8.51 18.63-7.24L18.63-7.24Q24.12-5.06 31.01-6.54L31.01-6.54Q32.70-7.10 30.59-8.51L30.59-8.51L27.14-10.48Q24.12-11.32 24.47-13.57L24.47-13.57Q24.54-15.33 26.37-17.02L26.37-17.02Q27.77-18.42 28.90-17.58L28.90-17.58Q29.39-17.23 30.16-15.12L30.16-15.12Q32.63-11.88 34.59-10.83L34.59-10.83Q36.77-9.42 38.81-11.18L38.81-11.18Q45.28-19.90 43.03-30.02L43.03-30.02Q40.78-36.35 33.82-40.08Z"></path></svg></g></g><mask id="035646c5-9d5f-4302-8b84-fe783a653a6e"><g fill="white"><svg xmlns="http://www.w3.org/2000/svg" xmlns:xlink="http://www.w3.org/1999/xlink" xml:space="preserve" version="1.1" style="shape-rendering: geometricprecision; text-rendering: geometricprecision; overflow: visible;" viewBox="0 0 249 249" x="0" y="0" fill-rule="evenodd" clip-rule="evenodd" width="60" height="60" filtersec="colorsf8818018350"><g transform="scale(1, 1) skewX(0)"><defs></defs><g><path d="M125 0c68,0 124,56 124,125 0,68 -56,124 -124,124 -69,0 -125,-56 -125,-124 0,-69 56,-125 125,-125z"></path></g></g></svg></g> <g fill="black"><svg xmlns="http://www.w3.org/2000/svg" xmlns:xlink="http://www.w3.org/1999/xlink" viewBox="0 0 49.72566487208549 49.35266335227272" width="52" height="52" x="4" y="4" class="image-svg-letter"><path transform="translate(-3.1651554404145075 47.562890624999994)" d="M25.73-47.53L25.73-47.53Q26.58-47.74 28.83-46.55L28.83-46.55Q38.88-45.98 45.07-37.27L45.07-37.27Q51.26-27.49 48.80-17.93L48.80-17.93Q47.67-12.30 43.73-8.09L43.73-8.09Q41.77-6.26 43.95-5.20L43.95-5.20Q46.27-4.36 49.50-3.80L49.50-3.80Q51.82-4.15 52.80-3.09L52.80-3.09Q53.30-1.69 50.98-0.28L50.98-0.28Q46.20 2.25 43.95 1.69L43.95 1.69Q42.26 0.98 39.16-2.18L39.16-2.18Q37.48-3.59 35.37-2.88L35.37-2.88Q22.92 0.98 12.73-4.43L12.73-4.43Q3.94-10.69 3.38-20.60L3.38-20.60Q1.69-32.48 13.57-41.77L13.57-41.77Q17.37-44.23 23.41-46.05L23.41-46.05Q24.33-46.76 25.73-47.53ZM33.82-40.08L33.82-40.08Q22.85-44.79 12.73-34.80L12.73-34.80Q9.63-30.38 9.42-23.98L9.42-23.98Q9.28-16.31 13.15-11.46L13.15-11.46Q15.47-8.51 18.63-7.24L18.63-7.24Q24.12-5.06 31.01-6.54L31.01-6.54Q32.70-7.10 30.59-8.51L30.59-8.51L27.14-10.48Q24.12-11.32 24.47-13.57L24.47-13.57Q24.54-15.33 26.37-17.02L26.37-17.02Q27.77-18.42 28.90-17.58L28.90-17.58Q29.39-17.23 30.16-15.12L30.16-15.12Q32.63-11.88 34.59-10.83L34.59-10.83Q36.77-9.42 38.81-11.18L38.81-11.18Q45.28-19.90 43.03-30.02L43.03-30.02Q40.78-36.35 33.82-40.08Z"></path></svg></g></mask></svg> <defs><filter id="colors7820865555"><feColorMatrix type="matrix" values="0 0 0 0 0.109375  0 0 0 0 0.03125  0 0 0 0 0.36328125  0 0 0 1 0" class="icon-fecolormatrix"></feColorMatrix></filter> <filter id="colorsf8818018350"><feColorMatrix type="matrix" values="0 0 0 0 0.99609375  0 0 0 0 0.99609375  0 0 0 0 0.99609375  0 0 0 1 0" class="icon-fecolormatrix"></feColorMatrix></filter> <filter id="colorsb6449392496"><feColorMatrix type="matrix" values="0 0 0 0 0  0 0 0 0 0  0 0 0 0 0  0 0 0 1 0" class="icon-fecolormatrix"></feColorMatrix></filter></defs><rect v-gra="id" width="95" height="95" transform="translate(-6, -6)" style="pointer-events:none;" fill="url(#peNvVXXjoeAi67nXyfm1w)"></rect></g> <g transform="translate(0,89)"><g data-gra="path-name" fill-rule="" class="tp-name iconsvg-namesvg" transform="translate(0,0)"><g transform="scale(1)"><g><path d="M20.06-26.75L20.06-26.75Q20.5-27.63 21.42-27.19L21.42-27.19Q22.98-26.07 22.94-24.26L22.94-24.26Q23.1-23.22 24.06-23.22L24.06-23.22Q25.1-23.22 25.38-24.42L25.38-24.42Q25.83-26.71 26.95-27.19L26.95-27.19Q28.47-27.27 28.71-25.71L28.71-25.71Q28.63-25.22 27.95-24.38L27.95-24.38Q27.23-23.34 28.15-23.34L28.15-23.34Q29.27-23.38 30.39-23.26L30.39-23.26Q31.83-23.38 31.99-22.18L31.99-22.18Q31.55-20.46 29.67-20.78L29.67-20.78Q28.55-20.86 28.83-20.58L28.83-20.58Q29.35-19.66 28.43-18.74L28.43-18.74Q27.31-17.82 28.39-17.3L28.39-17.3Q31.55-16.18 34.43-16.46L34.43-16.46Q35.63-16.42 35.75-16.22L35.75-16.22Q36.12-15.62 35.39-14.81L35.39-14.81Q33.83-12.69 32.27-13.09L32.27-13.09 30.19-13.77Q29.27-14.17 29.51-13.85L29.51-13.85Q29.99-13.05 29.23-11.77L29.23-11.77Q28.87-10.89 30.23-10.97L30.23-10.97Q31.51-11.05 32.91-11.01L32.91-11.01Q34.91-10.33 33.87-8.81L33.87-8.81Q32.91-7.97 31.79-8.25L31.79-8.25Q28.79-8.45 25.75-8.49L25.75-8.49Q24.78-8.49 25.3-7.29L25.3-7.29 25.83-6.37Q26.51-5.49 27.79-6.37L27.79-6.37Q29.07-8.01 30.03-7.73L30.03-7.73Q30.83-7.41 30.71-6.41L30.71-6.41Q30.71-5.37 29.27-4.44L29.27-4.44Q28.35-3.76 29.59-2.96L29.59-2.96Q33.63-0.76 38.68-0.96L38.68-0.96Q40-0.64 38.92 0.64L38.92 0.64Q36.04 4.04 33.67 2.32L33.67 2.32Q30.23 0.88 27.27-1.36L27.27-1.36Q26.03-2.28 24.82-1.68L24.82-1.68Q19.62 0.92 15.38 1.44L15.38 1.44Q13.21 1.8 12.01 0.28L12.01 0.28Q11.61-1.12 13.81-1.68L13.81-1.68Q18.54-2.16 23.26-3.92L23.26-3.92Q24.22-4.28 23.42-5.49L23.42-5.49Q22.86-6.45 22.46-7.41L22.46-7.41Q22.1-8.45 20.94-8.49L20.94-8.49Q18.42-8.41 15.62-8.01L15.62-8.01Q13.05-7.33 12.77-9.05L12.77-9.05Q12.73-10.13 14.65-11.21L14.65-11.21Q15.58-11.41 16.66-11.13L16.66-11.13 20.5-10.81Q21.46-10.77 21.34-11.97L21.34-11.97Q20.82-13.93 21.94-15.05L21.94-15.05Q22.74-15.38 23.58-14.41L23.58-14.41Q24.38-13.05 24.22-11.81L24.22-11.81Q24.22-10.77 25.42-10.77L25.42-10.77 25.83-10.77Q26.83-10.77 26.83-11.73L26.83-11.73 26.83-12.81Q26.67-13.81 28.11-14.45L28.11-14.45Q28.51-14.45 27.27-15.09L27.27-15.09 26.03-15.78Q24.94-16.54 24.1-16.14L24.1-16.14Q20.14-14.41 16.66-14.09L16.66-14.09Q14.41-13.73 13.45-15.29L13.45-15.29Q13.21-15.66 13.65-16.3L13.65-16.3Q14.69-17.06 17.06-17.02L17.06-17.02 22.06-18.14Q23.02-18.38 22.14-19.62L22.14-19.62 21.58-20.42Q21.34-21.18 19.86-20.98L19.86-20.98Q18.06-20.94 15.46-20.42L15.46-20.42Q14.57-20.1 13.85-20.58L13.85-20.58Q12.77-21.82 14.41-23.22L14.41-23.22Q15.42-23.98 16.58-23.58L16.58-23.58 19.46-23.34Q20.34-23.3 20.02-24.62L20.02-24.62 19.9-25.46Q19.9-26.35 20.06-26.75ZM5.17-23.78L5.17-23.78Q6.65-24.5 8.01-22.98L8.01-22.98 9.17-21.78Q10.57-20.94 9.93-19.74L9.93-19.74Q9.69-19.18 8.97-19.38L8.97-19.38Q6.73-20.3 5.77-20.42L5.77-20.42Q3.28-20.78 3.72-22.58L3.72-22.58Q4.2-23.42 5.17-23.78ZM26.35-19.98L26.35-19.98Q27.47-20.98 26.47-20.98L26.47-20.98 24.9-20.98Q23.94-20.98 24.42-20.18L24.42-20.18Q25.22-19.26 26.35-19.98ZM3.72-14.57L3.72-14.57Q4.72-15.09 6.53-13.53L6.53-13.53Q9.13-12.77 8.57-11.01L8.57-11.01Q8.01-10.25 6.33-10.89L6.33-10.89 4.96-11.05Q3.56-10.93 2.68-11.25L2.68-11.25Q1.76-11.53 1.84-12.41L1.84-12.41Q1.88-13.73 3.72-14.57ZM8.89-5.81L8.89-5.81Q9.89-6.57 10.45-6.05L10.45-6.05Q11.41-5 9.69-3.44L9.69-3.44Q7.53-1.2 5.85 0.12L5.85 0.12Q4.8 1.56 3.48 0.16L3.48 0.16Q2.72-1.24 3.08-2.6L3.08-2.6Q3.16-3.12 4.08-3.6L4.08-3.6Q6.09-3.92 8.89-5.81ZM52.81-27.11L52.81-27.11Q56.9-27.75 67.75-27.27L67.75-27.27Q69.83-27.15 70.95-26.51L70.95-26.51Q72.35-25.54 71.51-24.22L71.51-24.22Q70.95-22.62 70.55-21.02L70.55-21.02Q69.63-17.54 66.67-18.66L66.67-18.66Q65.18-19.06 63.58-19.1L63.58-19.1Q62.54-19.18 62.54-18.62L62.54-18.62Q62.54-17.94 63.5-17.94L63.5-17.94Q68.59-18.18 70.35-17.46L70.35-17.46Q70.83-17.02 70.67-16.22L70.67-16.22Q70.07-15.17 68.35-15.42L68.35-15.42Q65.98-15.58 63.58-15.58L63.58-15.58Q62.58-15.58 62.58-14.93L62.58-14.93Q62.58-14.17 63.5-14.17L63.5-14.17Q69.11-14.21 72.51-13.93L72.51-13.93Q74.07-13.85 74.71-13.57L74.71-13.57Q75.35-13.21 75.43-12.65L75.43-12.65Q75.19-10.53 72.87-10.77L72.87-10.77Q64.26-12.49 56.94-11.97L56.94-11.97Q54.05-11.77 50.53-10.93L50.53-10.93Q49.73-10.85 48.93-10.93L48.93-10.93Q47.81-11.21 47.85-12.13L47.85-12.13Q48.05-13.13 48.93-13.49L48.93-13.49Q51.85-14.25 58.5-14.21L58.5-14.21Q59.7-14.17 59.86-14.81L59.86-14.81Q59.94-15.66 59.06-15.74L59.06-15.74Q56.82-15.66 54.53-15.29L54.53-15.29Q53.09-14.73 51.97-15.74L51.97-15.74Q51.29-17.78 53.97-18.02L53.97-18.02 58.94-17.98Q59.94-17.98 59.94-18.54L59.94-18.54Q59.94-19.14 58.98-19.14L58.98-19.14Q56.78-19.14 54.41-18.46L54.41-18.46Q53.45-17.9 52.81-18.62L52.81-18.62Q52.17-19.5 51.69-21.82L51.69-21.82Q51.33-23.42 50.81-25.02L50.81-25.02Q50.29-26.87 52.81-27.11ZM58.7-25.02L58.7-25.02Q55.57-25.18 53.89-24.54L53.89-24.54Q53.65-23.58 54.05-21.98L54.05-21.98Q54.09-20.58 55.61-21.1L55.61-21.1Q57.26-21.26 58.9-21.26L58.9-21.26Q59.82-21.3 59.82-22.3L59.82-22.3 59.74-24.06Q59.66-25.02 58.7-25.02ZM67.27-24.98L67.27-24.98 66.95-24.98Q65.38-25.1 63.78-25.06L63.78-25.06Q62.66-25.06 62.58-24.18L62.58-24.18Q62.46-23.3 62.5-22.42L62.5-22.42Q62.5-21.3 63.3-21.3L63.3-21.3Q66.22-21.1 67.75-21.22L67.75-21.22Q68.47-22.3 68.55-24.5L68.55-24.5Q68.47-24.74 67.27-24.98ZM55.45-24.38L55.45-24.38Q56.42-24.74 58.18-23.82L58.18-23.82Q59.18-23.58 59.26-22.86L59.26-22.86Q59.1-22.3 58.5-22.06L58.5-22.06Q57.7-21.94 56.9-21.7L56.9-21.7Q55.49-21.02 54.61-22.38L54.61-22.38Q54.13-23.62 55.45-24.38ZM63.38-23.54L63.38-23.54Q65.22-24.7 65.98-24.54L65.98-24.54Q67.67-24.14 67.15-22.46L67.15-22.46Q66.3-21.26 64.98-21.66L64.98-21.66Q64.18-21.82 63.38-21.86L63.38-21.86Q61.94-22.46 63.38-23.54ZM57.3-11.41L57.3-11.41Q58.46-12.41 59.62-11.01L59.62-11.01Q60.22-9.89 59.54-9.09L59.54-9.09Q59.18-6.97 58.06-7.09L58.06-7.09Q57.42-7.45 57.3-8.41L57.3-8.41Q56.86-9.65 56.78-10.41L56.78-10.41Q56.86-11.01 57.3-11.41ZM62.62-10.61L62.62-10.61Q63.14-12.05 64.62-11.73L64.62-11.73Q66.26-10.73 65.5-8.93L65.5-8.93 65.38-8.13Q65.22-6.33 63.82-7.25L63.82-7.25 62.98-9.01Q62.38-9.81 62.62-10.61ZM51.85-10.13L51.85-10.13Q52.69-11.09 53.57-11.05L53.57-11.05Q54.33-11.09 54.81-10.13L54.81-10.13Q55.37-8.85 53.53-7.85L53.53-7.85 51.53-6.81Q50.33-6.25 50.13-6.33L50.13-6.33Q49.53-6.97 50.25-7.73L50.25-7.73Q50.97-8.93 51.85-10.13ZM67.95-9.77L67.95-9.77Q68.31-11.05 69.35-11.05L69.35-11.05Q70.19-11.17 71.07-10.29L71.07-10.29Q72.55-8.41 72.75-7.49L72.75-7.49Q72.95-7.09 72.19-6.69L72.19-6.69Q71.95-6.69 71.15-7.09L71.15-7.09Q70.27-7.77 69.43-7.81L69.43-7.81Q68.03-8.33 67.95-9.77ZM59.94-6.93L59.94-6.93Q59.82-9.61 62.14-8.89L62.14-8.89Q63.22-8.13 63.06-6.73L63.06-6.73Q63.06-5.81 64.02-5.81L64.02-5.81Q67.99-5.85 69.59-5.69L69.59-5.69Q71.31-5.81 71.47-4.48L71.47-4.48Q71.35-3.04 69.95-3.2L69.95-3.2Q66.91-3.36 63.82-3.4L63.82-3.4Q62.86-3.4 62.86-2.4L62.86-2.4Q62.86-1.32 63.82-1.32L63.82-1.32Q72.11-1.04 80.52-0.6L80.52-0.6Q80.76-0.48 80.92-0.28L80.92-0.28Q81 0.64 79.48 2.24L79.48 2.24Q78.2 3.8 76.31 2.96L76.31 2.96Q73.43 1.68 69.91 1.2L69.91 1.2Q56.94 0.04 45.72 2.28L45.72 2.28Q45.32 2.52 44.12 2.28L44.12 2.28Q42.52 1.52 43.48 0.12L43.48 0.12Q44.8-1.28 46.65-1.24L46.65-1.24Q52.81-1.36 59.1-1.32L59.1-1.32Q60.1-1.32 60.1-2.36 60.1-3.4 58.9-3.36L58.9-3.36Q56.7-3.32 54.45-3L54.45-3Q53.61-2.84 52.73-3L52.73-3Q51.17-3.88 52.05-5.08L52.05-5.08Q52.61-5.65 53.49-5.69L53.49-5.69Q55.25-5.93 58.94-5.85L58.94-5.85Q60.02-5.85 59.94-6.93ZM90.45-27.35L90.45-27.35Q92.05-27.91 92.53-25.58L92.53-25.58Q92.21-20.3 92.17-14.73L92.17-14.73Q92.17-13.77 92.57-13.65L92.57-13.65Q93.17-13.49 93.61-13.93L93.61-13.93Q94.37-15.58 94.05-20.54L94.05-20.54Q94.09-21.42 94.65-22.14L94.65-22.14Q95.29-22.74 96.25-22.34L96.25-22.34Q97.01-21.98 96.97-20.82L96.97-20.82Q96.57-18.7 96.37-13.33L96.37-13.33Q95.81-10.65 93.21-10.85L93.21-10.85Q92.17-11.13 92.17-10.25L92.17-10.25Q92.13-4.68 92.25 1L92.25 1Q91.89 3.52 90.13 2.84L90.13 2.84Q89.37 2.44 89.25 1.44L89.25 1.44 89.53-9.49Q89.53-10.45 89.13-10.45L89.13-10.45 87.13-9.89Q86-9.61 85.08-10.57L85.08-10.57Q84.6-11.57 84.48-13.33L84.48-13.33Q84.2-17.46 84.72-21.1L84.72-21.1Q84.8-21.62 85.4-22.1L85.4-22.1Q86.2-22.58 87.04-21.58L87.04-21.58Q87.25-21.06 87.25-19.86L87.25-19.86Q87.21-17.46 87-15.05L87-15.05Q86.92-13.61 87.21-12.93L87.21-12.93Q87.37-12.73 88.45-12.85L88.45-12.85Q89.53-13.17 89.49-14.37L89.49-14.37 89.45-24.18Q89.45-25.02 89.57-25.91L89.57-25.91Q89.53-26.79 90.45-27.35ZM105.94-26.91L105.94-26.91Q106.7-27.63 107.99-27.23L107.99-27.23Q109.19-26.59 108.95-25.42L108.95-25.42Q108.75-24.62 109.71-24.62L109.71-24.62Q112.07-24.62 114.55-24.46L114.55-24.46Q115.75-24.22 115.91-23.98L115.91-23.98Q116.47-22.34 114.67-22.14L114.67-22.14 112.67-22.22Q111.71-22.22 111.95-21.94L111.95-21.94Q112.47-20.66 111.55-19.38L111.55-19.38Q111.47-19.3 112.55-19.3L112.55-19.3Q115.35-19.38 118.16-19.34L118.16-19.34Q119.4-19.06 119.08-18.3L119.08-18.3Q118.36-16.94 117.03-16.7L117.03-16.7Q116.15-16.7 113.71-17.02L113.71-17.02Q105.42-17.66 98.9-16.06L98.9-16.06Q97.86-15.9 97.46-16.22L97.46-16.22Q97.09-16.42 96.89-17.02L96.89-17.02Q96.61-18.66 99.22-19.34L99.22-19.34 102.06-19.34Q103.18-19.3 102.78-19.98L102.78-19.98Q102.34-20.54 102.7-21.7L102.7-21.7Q102.9-22.06 101.74-21.94L101.74-21.94Q100.34-21.46 99.46-22.7L99.46-22.7Q99.18-24.42 101.02-24.54L101.02-24.54Q102.46-24.78 105.06-24.7L105.06-24.7Q106.06-24.7 105.82-25.42L105.82-25.42Q105.46-26.19 105.94-26.91ZM109.71-21.82L109.71-21.82Q110.15-22.3 109.31-22.3L109.31-22.3 105.94-22.3Q104.74-22.18 105.1-21.78L105.1-21.78Q105.38-21.3 105.5-20.3L105.5-20.3Q105.54-19.3 106.5-19.3L106.5-19.3 107.71-19.3Q108.83-19.3 109.11-20.3L109.11-20.3Q108.99-20.98 109.71-21.82ZM104.02-16.02L104.02-16.02Q110.91-16.62 114.91-15.46L114.91-15.46Q116.63-14.89 116.11-13.49L116.11-13.49Q115.51-12.13 115.23-10.29L115.23-10.29 114.71-8.69Q113.95-6.65 112.07-7.01L112.07-7.01Q106.5-8.05 103.22-6.97L103.22-6.97Q101.46-6.25 100.98-8.85L100.98-8.85Q100.46-11.65 99.74-14.45L99.74-14.45Q99.66-15.09 100.42-15.54L100.42-15.54Q101.42-15.94 104.02-16.02ZM111.75-13.81L111.75-13.81Q106.94-13.89 103.74-13.61L103.74-13.61Q102.74-13.45 102.7-13.17 102.66-12.89 103.86-12.77L103.86-12.77Q107.99-12.73 112.11-12.85L112.11-12.85Q113.31-12.57 113.07-13.41L113.07-13.41Q112.95-13.65 111.75-13.81ZM111.75-10.57L111.75-10.57Q107.91-10.69 104.02-10.53L104.02-10.53Q102.94-10.45 103.06-10.01L103.06-10.01Q103.3-9.45 104.5-9.49L104.5-9.49Q107.14-9.73 111.39-9.61L111.39-9.61Q112.43-9.21 112.67-10.25L112.67-10.25Q112.71-10.49 111.75-10.57ZM97.17-6.01L97.17-6.01Q98.26-8.61 99.98-6.09L99.98-6.09Q100.5-4.96 99.58-4.12L99.58-4.12Q98.46-3.2 97.29-1.96L97.29-1.96Q96.13-0.96 95.45-0.88L95.45-0.88Q94.25-1.12 95.45-2.8L95.45-2.8Q96.53-4.4 97.17-6.01ZM108.27-5L108.27-5Q107.83-8.17 110.47-6.97L110.47-6.97Q111.75-6.17 110.51-4.72L110.51-4.72 108.91-3.04Q108.31-2.6 107.91-3.4L107.91-3.4Q107.95-4.2 108.27-5ZM113.95-6.61L113.95-6.61Q115.95-6.65 116.35-5.08L116.35-5.08Q116.27-4.16 115.55-3.68L115.55-3.68Q113.71-1.44 112.71-1.72L112.71-1.72Q112.15-2.16 112.55-2.92L112.55-2.92Q113.15-4.12 113.27-5.33L113.27-5.33Q113.35-6.21 113.95-6.61ZM101.7-4.4L101.7-4.4Q102.74-7.33 105.06-4.96L105.06-4.96Q105.98-3.76 108.19-2.72L108.19-2.72Q111.27-1.28 114.19-0.96L114.19-0.96Q117.43-0.76 119.92-2.16L119.92-2.16Q121-3.12 121.44-2L121.44-2Q121.48-1.48 120.76-0.6L120.76-0.6Q117.51 3.16 114.43 2.64L114.43 2.64Q110.67 1.76 104.82-1.84L104.82-1.84Q103.82-2.24 103.54-2.24L103.54-2.24Q103.1-2.16 101.98-1.04L101.98-1.04Q101.1 0.32 100.26 0.56L100.26 0.56Q99.74 0.68 99.54-0.16L99.54-0.16Q99.78-1.4 101.34-3.6L101.34-3.6Q101.58-4 101.7-4.4Z" transform="translate(-1.8336000442504883, 27.4757137298584)"></path></g> <!----> <!----> <!----> <!----> <!----> <!----> <!----></g></g> </g></g><defs v-gra="od"></defs><defs v-gra="id"><filter id="c831e4b0-7fb9-4c52-abc5-a145fcbef5ba" filterUnits="userSpaceOnUse"><feColorMatrix type="matrix" values="0 0 0 0 0.99609375  0 0 0 0 0.99609375  0 0 0 0 0.99609375  0 0 0 1 0"></feColorMatrix></filter><linearGradient x1="0" y1="1" x2="0" y2="0" id="peNvVXXjoeAi67nXyfm1w"><stop offset="0%" stop-color="#b722ff"></stop><stop offset="100%" stop-color="#22d4fe"></stop></linearGradient><filter id="42443b3f1de60f6b6fd3b6a9844b4764" filterUnits="objectBoundingBox"><feColorMatrix type="matrix" values="0 0 0 0 0.99609375  0 0 0 0 0.99609375  0 0 0 0 0.99609375  0 0 0 1 0"></feColorMatrix></filter></defs><mask v-gra="im" id="5816abd9-0bb7-4ee3-8fed-fbbfc7b2e570"><g fill="#cd8c2a" class="iconsvg-imagesvg icon_container" filter="url(#c831e4b0-7fb9-4c52-abc5-a145fcbef5ba)"><rect fill="#333333" fill-opacity="0" stroke-width="2" x="0" y="0" width="83" height="83" class="image-rect"></rect> <svg viewBox="0 0 60 60" x="0" y="0" width="83" height="83" class="image-svg-svg bn" style="overflow: visible;"><g hollow-target="iconBnFill" mask="url(#035646c5-9d5f-4302-8b84-fe783a653a6e)"><g><svg fill="#000000" xmlns="http://www.w3.org/2000/svg" xmlns:xlink="http://www.w3.org/1999/xlink" xml:space="preserve" version="1.1" style="shape-rendering: geometricprecision; text-rendering: geometricprecision; overflow: visible;" viewBox="0 0 249 249" x="0" y="0" fill-rule="evenodd" clip-rule="evenodd" width="60" height="60" filtersec="colorsf8818018350"><g transform="scale(1, 1) skewX(0)"><defs><filter id="atndO01eKNSPBgKULe379"><feColorMatrix type="matrix" values="0 0 0 0 0.80078125  0 0 0 0 0.546875  0 0 0 0 0.1640625  0 0 0 1 0"></feColorMatrix></filter></defs><g><path class="fil0" d="M125 0c68,0 124,56 124,125 0,68 -56,124 -124,124 -69,0 -125,-56 -125,-124 0,-69 56,-125 125,-125z"></path></g></g></svg></g> <g><svg xmlns="http://www.w3.org/2000/svg" xmlns:xlink="http://www.w3.org/1999/xlink" viewBox="0 0 49.72566487208549 49.35266335227272" width="52" height="52" x="4" y="4" class="image-svg-letter"><path transform="translate(-3.1651554404145075 47.562890624999994)" d="M25.73-47.53L25.73-47.53Q26.58-47.74 28.83-46.55L28.83-46.55Q38.88-45.98 45.07-37.27L45.07-37.27Q51.26-27.49 48.80-17.93L48.80-17.93Q47.67-12.30 43.73-8.09L43.73-8.09Q41.77-6.26 43.95-5.20L43.95-5.20Q46.27-4.36 49.50-3.80L49.50-3.80Q51.82-4.15 52.80-3.09L52.80-3.09Q53.30-1.69 50.98-0.28L50.98-0.28Q46.20 2.25 43.95 1.69L43.95 1.69Q42.26 0.98 39.16-2.18L39.16-2.18Q37.48-3.59 35.37-2.88L35.37-2.88Q22.92 0.98 12.73-4.43L12.73-4.43Q3.94-10.69 3.38-20.60L3.38-20.60Q1.69-32.48 13.57-41.77L13.57-41.77Q17.37-44.23 23.41-46.05L23.41-46.05Q24.33-46.76 25.73-47.53ZM33.82-40.08L33.82-40.08Q22.85-44.79 12.73-34.80L12.73-34.80Q9.63-30.38 9.42-23.98L9.42-23.98Q9.28-16.31 13.15-11.46L13.15-11.46Q15.47-8.51 18.63-7.24L18.63-7.24Q24.12-5.06 31.01-6.54L31.01-6.54Q32.70-7.10 30.59-8.51L30.59-8.51L27.14-10.48Q24.12-11.32 24.47-13.57L24.47-13.57Q24.54-15.33 26.37-17.02L26.37-17.02Q27.77-18.42 28.90-17.58L28.90-17.58Q29.39-17.23 30.16-15.12L30.16-15.12Q32.63-11.88 34.59-10.83L34.59-10.83Q36.77-9.42 38.81-11.18L38.81-11.18Q45.28-19.90 43.03-30.02L43.03-30.02Q40.78-36.35 33.82-40.08Z"></path></svg></g></g><mask id="035646c5-9d5f-4302-8b84-fe783a653a6e"><g fill="white"><svg xmlns="http://www.w3.org/2000/svg" xmlns:xlink="http://www.w3.org/1999/xlink" xml:space="preserve" version="1.1" style="shape-rendering: geometricprecision; text-rendering: geometricprecision; overflow: visible;" viewBox="0 0 249 249" x="0" y="0" fill-rule="evenodd" clip-rule="evenodd" width="60" height="60" filtersec="colorsf8818018350"><g transform="scale(1, 1) skewX(0)"><defs></defs><g><path d="M125 0c68,0 124,56 124,125 0,68 -56,124 -124,124 -69,0 -125,-56 -125,-124 0,-69 56,-125 125,-125z"></path></g></g></svg></g> <g fill="black"><svg xmlns="http://www.w3.org/2000/svg" xmlns:xlink="http://www.w3.org/1999/xlink" viewBox="0 0 49.72566487208549 49.35266335227272" width="52" height="52" x="4" y="4" class="image-svg-letter"><path transform="translate(-3.1651554404145075 47.562890624999994)" d="M25.73-47.53L25.73-47.53Q26.58-47.74 28.83-46.55L28.83-46.55Q38.88-45.98 45.07-37.27L45.07-37.27Q51.26-27.49 48.80-17.93L48.80-17.93Q47.67-12.30 43.73-8.09L43.73-8.09Q41.77-6.26 43.95-5.20L43.95-5.20Q46.27-4.36 49.50-3.80L49.50-3.80Q51.82-4.15 52.80-3.09L52.80-3.09Q53.30-1.69 50.98-0.28L50.98-0.28Q46.20 2.25 43.95 1.69L43.95 1.69Q42.26 0.98 39.16-2.18L39.16-2.18Q37.48-3.59 35.37-2.88L35.37-2.88Q22.92 0.98 12.73-4.43L12.73-4.43Q3.94-10.69 3.38-20.60L3.38-20.60Q1.69-32.48 13.57-41.77L13.57-41.77Q17.37-44.23 23.41-46.05L23.41-46.05Q24.33-46.76 25.73-47.53ZM33.82-40.08L33.82-40.08Q22.85-44.79 12.73-34.80L12.73-34.80Q9.63-30.38 9.42-23.98L9.42-23.98Q9.28-16.31 13.15-11.46L13.15-11.46Q15.47-8.51 18.63-7.24L18.63-7.24Q24.12-5.06 31.01-6.54L31.01-6.54Q32.70-7.10 30.59-8.51L30.59-8.51L27.14-10.48Q24.12-11.32 24.47-13.57L24.47-13.57Q24.54-15.33 26.37-17.02L26.37-17.02Q27.77-18.42 28.90-17.58L28.90-17.58Q29.39-17.23 30.16-15.12L30.16-15.12Q32.63-11.88 34.59-10.83L34.59-10.83Q36.77-9.42 38.81-11.18L38.81-11.18Q45.28-19.90 43.03-30.02L43.03-30.02Q40.78-36.35 33.82-40.08Z"></path></svg></g></mask></svg> <defs><filter id="colors7820865555"><feColorMatrix type="matrix" values="0 0 0 0 0.109375  0 0 0 0 0.03125  0 0 0 0 0.36328125  0 0 0 1 0" class="icon-fecolormatrix"></feColorMatrix></filter> <filter id="colorsf8818018350"><feColorMatrix type="matrix" values="0 0 0 0 0.99609375  0 0 0 0 0.99609375  0 0 0 0 0.99609375  0 0 0 1 0" class="icon-fecolormatrix"></feColorMatrix></filter> <filter id="colorsb6449392496"><feColorMatrix type="matrix" values="0 0 0 0 0  0 0 0 0 0  0 0 0 0 0  0 0 0 1 0" class="icon-fecolormatrix"></feColorMatrix></filter></defs></g></mask></svg>
