<svg data-v-0dd9719b="" version="1.0" xmlns="http://www.w3.org/2000/svg" xmlns:xlink="http://www.w3.org/1999/xlink" width="100%" height="100%" viewBox="0 0 1252.000000 1252.000000" preserveAspectRatio="xMidYMid meet" color-interpolation-filters="sRGB" style="margin: auto;">   <g data-v-0dd9719b="" fill="#000000" class="newinitialsvg-g newinitialsvg" transform="translate(90.2044906616211,89.50324249267578)"><g class="tp-name" transform="translate(0,0)"><g class="tp-graph" transform="translate(0, 0)" fill="#000000" mask="url(#cc70d672-ef2d-417e-99ff-173a10206e40)"><rect data-gra="graph-name" fill="#f33422" height="1252" rx="1000" ry="1000" width="1252" x="0" y="0"></rect><g data-gra="path-name" transform="translate(6.7666015625,6.0830078125)"><g transform="scale(1)"><path d="M26.17-41.02L26.17-41.02L31.25-38.48Q31.25-38.48 31.05-38.28L31.05-38.28Q29.49-37.11 29.49-35.74L29.49-35.74Q29.49-29.69 29.69-27.15L29.69-27.15L38.28-28.13L40.43-31.05L44.92-28.32L44.73-27.93L29.69-26.17Q29.69-25.98 29.69-25.59L29.69-25.59Q29.88-22.66 30.47-18.95L30.47-18.95L39.26-20.12L41.41-23.24L45.90-20.12L45.90-19.73L30.47-17.97Q30.47-17.77 30.66-17.19L30.66-17.19Q31.25-11.91 32.62-9.18L32.62-9.18Q35.35-11.72 39.26-16.60L39.26-16.60Q41.80-14.65 42.58-13.67L42.58-13.67Q42.58-13.48 41.99-13.28L41.99-13.28Q40.82-12.70 39.84-12.11L39.84-12.11Q39.06-11.52 35.94-8.59L35.94-8.59Q34.57-7.23 33.79-6.64L33.79-6.64Q37.50-0.98 42.38 0.78L42.38 0.78Q43.55-0.39 44.92-8.59L44.92-8.59L45.51-8.40Q44.92-3.13 45.12-0.20L45.12-0.20Q45.31 2.34 46.48 4.30L46.48 4.30Q47.27 5.47 46.48 5.86L46.48 5.86Q37.70 3.91 31.45-4.69L31.45-4.69Q24.22 0.20 14.06 4.30L14.06 4.30L13.87 3.71Q24.41-1.76 30.08-6.84L30.08-6.84Q28.32-11.52 27.54-17.58L27.54-17.58L17.19-16.21L15.43-15.43L14.45-16.99L27.34-18.55Q26.95-22.85 26.95-25.59L26.95-25.59L20.70-24.80L18.75-24.41L17.58-25.78L26.76-26.95Q26.76-28.32 26.56-31.84L26.56-31.84Q26.37-38.28 26.17-41.02ZM5.27-38.67L5.66-39.26Q12.89-36.72 13.48-34.96L13.48-34.96Q13.87-32.42 12.11-31.05L12.11-31.05Q11.52-30.86 10.74-32.42L10.74-32.42Q8.79-36.52 5.27-38.67L5.27-38.67ZM32.62-38.09L33.01-38.48Q39.26-36.72 40.04-34.96L40.04-34.96Q40.63-32.81 38.87-31.25L38.87-31.25Q38.09-31.05 37.30-32.62L37.30-32.62Q35.55-35.94 32.62-38.09L32.62-38.09ZM19.14-36.52L19.14-36.52L19.92-36.33Q9.57-11.33 9.38-8.40L9.38-8.40Q8.98-7.03 9.77-1.17L9.77-1.17Q10.35 2.73 10.16 3.32L10.16 3.32Q8.01 5.86 6.25 1.37L6.25 1.37Q6.25 0.98 6.45-0.59L6.45-0.59Q7.23-5.47 6.64-6.64L6.64-6.64Q6.05-8.40 2.34-8.79L2.34-8.79L2.34-9.38Q7.23-9.18 7.81-11.33L7.81-11.33Q10.35-17.19 15.04-27.73L15.04-27.73Q17.77-33.20 19.14-36.52ZM1.37-27.34L1.56-27.73Q1.95-27.54 2.73-27.34L2.73-27.34Q7.62-25.59 8.59-24.02L8.59-24.02Q10.16-21.09 7.23-19.53L7.23-19.53Q6.84-19.53 6.45-20.70L6.45-20.70Q4.88-25 1.37-27.34L1.37-27.34Z" transform="translate(-1.3671875, 41.015625)"></path></g></g></g><g transform="translate(63.041015625, 0)"><g data-gra="path-name" transform="translate(0,6.0830078125)"><g transform="scale(1)"><path d="M8.79-39.65L8.79-39.65L12.30-37.50L37.30-37.50L38.87-39.65L42.97-36.52L40.82-35.35Q40.82-33.01 40.82-26.56L40.82-26.56Q39.45-25.39 38.09-25.39L38.09-25.39L38.09-26.37L26.17-26.37L26.17-21.88L37.70-21.88L40.04-24.41L43.95-20.90L43.75-20.70L26.17-20.70L26.17-16.41L41.80-16.41L43.95-19.14L47.85-15.43L47.85-15.23L36.91-15.23Q37.70-14.84 39.26-14.26L39.26-14.26Q44.14-12.30 44.73-11.33L44.73-11.33Q45.90-9.96 45.12-7.81L45.12-7.81Q43.95-5.66 42.97-7.03L42.97-7.03Q42.97-7.03 42.77-7.42L42.77-7.42Q40.04-12.11 35.55-15.23L35.55-15.23L28.13-15.23Q28.52-14.84 29.49-14.26L29.49-14.26Q32.62-11.91 32.81-10.74L32.81-10.74Q33.20-9.18 32.03-8.01L32.03-8.01Q30.66-6.84 30.27-8.40L30.27-8.40Q30.27-8.59 30.08-9.38L30.08-9.38Q29.49-12.70 27.15-15.23L27.15-15.23L17.58-15.23Q20.51-13.09 21.09-10.74L21.09-10.74Q21.48-8.98 20.31-7.81L20.31-7.81Q18.75-6.84 18.36-8.59L18.36-8.59Q18.36-8.98 18.36-9.57L18.36-9.57Q18.16-12.50 16.60-15.23L16.60-15.23L9.96-15.23Q9.77-9.18 8.01-6.84L8.01-6.84Q6.84-5.27 4.88-5.66L4.88-5.66Q2.54-6.45 3.91-7.81L3.91-7.81Q4.30-8.20 5.08-8.79L5.08-8.79Q8.40-11.13 8.79-15.23L8.79-15.23L5.47-15.23L3.32-14.84L2.34-16.41L23.05-16.41L23.05-20.70L9.96-20.70L8.01-20.31L6.84-21.88L23.05-21.88L23.05-26.37L11.72-26.37L11.72-24.61Q10.16-23.63 8.59-23.83L8.59-23.83Q9.18-30.47 8.79-38.87L8.79-38.87Q8.79-39.45 8.79-39.65ZM23.05-36.33L13.67-36.33Q11.72-36.72 11.72-34.38L11.72-34.38L11.72-27.54L23.05-27.54L23.05-36.33ZM38.09-27.54L38.09-36.33L26.17-36.33L26.17-27.54L38.09-27.54ZM32.62-35.35L32.62-35.35L36.33-32.81Q34.38-32.81 33.40-31.84L33.40-31.84Q33.20-31.84 33.01-31.64L33.01-31.64Q31.64-30.47 29.30-28.32L29.30-28.32L28.71-28.91Q31.45-32.62 32.62-35.35ZM14.45-34.77L15.04-35.35Q19.14-33.01 19.53-31.84L19.53-31.84Q20.51-30.27 18.55-28.71L18.55-28.71Q17.38-28.32 16.80-30.27L16.80-30.27Q16.02-33.01 14.45-34.77L14.45-34.77ZM23.05-4.10L23.05-9.96L27.73-8.01L26.17-6.64L26.17-4.10L35.35-4.10L37.70-6.84L41.41-3.13L41.21-2.93L26.17-2.93L26.17 2.34L39.65 2.34L42.19-0.78L46.88 3.13L46.88 3.52L7.03 3.52L4.69 3.91L3.52 2.34L23.05 2.34L23.05-2.93L11.91-2.93L9.38-2.54L8.40-4.10L23.05-4.10Z" transform="translate(-2.34375, 41.015625)"></path></g></g></g><g transform="translate(112.548828125, 0)"><g data-gra="path-name" transform="translate(0,6.0830078125)"><g transform="scale(1)"><path d="M9.77-40.43L9.77-40.43L14.45-38.48Q12.70-37.11 12.70-36.91L12.70-36.91L12.70-29.49Q18.36-27.54 18.95-25.78L18.95-25.78Q19.92-22.46 17.19-21.88L17.19-21.88Q16.80-21.88 16.21-23.44L16.21-23.44Q15.04-26.95 12.70-28.32L12.70-28.32L12.30 3.91Q12.11 3.91 11.91 4.10L11.91 4.10Q10.35 5.08 9.18 5.27L9.18 5.27Q9.77-20.31 9.77-40.43ZM39.06-37.11L39.06-37.11Q41.60-35.94 43.55-33.20L43.55-33.20Q43.55-33.20 43.36-33.20L43.36-33.20Q41.21-33.01 38.28-29.30L38.28-29.30Q25.78-11.52 23.44-6.45L23.44-6.45Q19.14-0.59 33.40-0.78L33.40-0.78Q41.60-0.59 42.77-2.15L42.77-2.15Q44.34-2.93 45.12-11.13L45.12-11.13L45.70-11.13Q45.31-4.69 47.66-2.73L47.66-2.73Q48.24-2.34 48.05-1.95L48.05-1.95Q47.66 0.59 44.92 1.37L44.92 1.37Q42.97 2.15 34.38 2.15L34.38 2.15Q15.82 2.93 19.92-6.05L19.92-6.05Q19.92-8.20 34.18-28.91L34.18-28.91Q36.13-32.03 37.30-33.59L37.30-33.59L24.41-33.20L21.88-32.62L20.90-33.98L37.11-34.57Q37.30-34.77 38.48-36.52L38.48-36.52Q39.06-37.11 39.06-37.11ZM5.47-28.32L5.47-28.32L5.86-28.32Q7.81-18.55 2.93-17.38L2.93-17.38Q0.59-16.99 1.17-18.95L1.17-18.95Q1.17-19.34 2.15-20.12L2.15-20.12Q5.27-23.63 5.47-28.32Z" transform="translate(-1.0546875, 41.015625)"></path></g></g></g></g> <g data-gra="path-slogan" fill-rule="" class="tp-slogan" fill="#000000" transform="translate(5,62.041015625)">  <g transform="translate(50.58468437194824,0)"><g transform="scale(1)"></g></g></g></g><mask id="cc70d672-ef2d-417e-99ff-173a10206e40"><g class="tp-graph"><rect data-gra="graph-name" height="1252" rx="1000" ry="1000" width="1252" x="0" y="0" fill="#fff"></rect><g data-gra="path-name" transform="translate(6.7666015625,6.0830078125)" stroke="#000" stroke-width="3" fill="#000"><g transform="scale(1)"><path d="M26.17-41.02L26.17-41.02L31.25-38.48Q31.25-38.48 31.05-38.28L31.05-38.28Q29.49-37.11 29.49-35.74L29.49-35.74Q29.49-29.69 29.69-27.15L29.69-27.15L38.28-28.13L40.43-31.05L44.92-28.32L44.73-27.93L29.69-26.17Q29.69-25.98 29.69-25.59L29.69-25.59Q29.88-22.66 30.47-18.95L30.47-18.95L39.26-20.12L41.41-23.24L45.90-20.12L45.90-19.73L30.47-17.97Q30.47-17.77 30.66-17.19L30.66-17.19Q31.25-11.91 32.62-9.18L32.62-9.18Q35.35-11.72 39.26-16.60L39.26-16.60Q41.80-14.65 42.58-13.67L42.58-13.67Q42.58-13.48 41.99-13.28L41.99-13.28Q40.82-12.70 39.84-12.11L39.84-12.11Q39.06-11.52 35.94-8.59L35.94-8.59Q34.57-7.23 33.79-6.64L33.79-6.64Q37.50-0.98 42.38 0.78L42.38 0.78Q43.55-0.39 44.92-8.59L44.92-8.59L45.51-8.40Q44.92-3.13 45.12-0.20L45.12-0.20Q45.31 2.34 46.48 4.30L46.48 4.30Q47.27 5.47 46.48 5.86L46.48 5.86Q37.70 3.91 31.45-4.69L31.45-4.69Q24.22 0.20 14.06 4.30L14.06 4.30L13.87 3.71Q24.41-1.76 30.08-6.84L30.08-6.84Q28.32-11.52 27.54-17.58L27.54-17.58L17.19-16.21L15.43-15.43L14.45-16.99L27.34-18.55Q26.95-22.85 26.95-25.59L26.95-25.59L20.70-24.80L18.75-24.41L17.58-25.78L26.76-26.95Q26.76-28.32 26.56-31.84L26.56-31.84Q26.37-38.28 26.17-41.02ZM5.27-38.67L5.66-39.26Q12.89-36.72 13.48-34.96L13.48-34.96Q13.87-32.42 12.11-31.05L12.11-31.05Q11.52-30.86 10.74-32.42L10.74-32.42Q8.79-36.52 5.27-38.67L5.27-38.67ZM32.62-38.09L33.01-38.48Q39.26-36.72 40.04-34.96L40.04-34.96Q40.63-32.81 38.87-31.25L38.87-31.25Q38.09-31.05 37.30-32.62L37.30-32.62Q35.55-35.94 32.62-38.09L32.62-38.09ZM19.14-36.52L19.14-36.52L19.92-36.33Q9.57-11.33 9.38-8.40L9.38-8.40Q8.98-7.03 9.77-1.17L9.77-1.17Q10.35 2.73 10.16 3.32L10.16 3.32Q8.01 5.86 6.25 1.37L6.25 1.37Q6.25 0.98 6.45-0.59L6.45-0.59Q7.23-5.47 6.64-6.64L6.64-6.64Q6.05-8.40 2.34-8.79L2.34-8.79L2.34-9.38Q7.23-9.18 7.81-11.33L7.81-11.33Q10.35-17.19 15.04-27.73L15.04-27.73Q17.77-33.20 19.14-36.52ZM1.37-27.34L1.56-27.73Q1.95-27.54 2.73-27.34L2.73-27.34Q7.62-25.59 8.59-24.02L8.59-24.02Q10.16-21.09 7.23-19.53L7.23-19.53Q6.84-19.53 6.45-20.70L6.45-20.70Q4.88-25 1.37-27.34L1.37-27.34Z" transform="translate(-1.3671875, 41.015625)"></path></g></g><g data-gra="path-name" transform="translate(6.7666015625,6.0830078125)" fill="#fff"><g transform="scale(1)"><path d="M26.17-41.02L26.17-41.02L31.25-38.48Q31.25-38.48 31.05-38.28L31.05-38.28Q29.49-37.11 29.49-35.74L29.49-35.74Q29.49-29.69 29.69-27.15L29.69-27.15L38.28-28.13L40.43-31.05L44.92-28.32L44.73-27.93L29.69-26.17Q29.69-25.98 29.69-25.59L29.69-25.59Q29.88-22.66 30.47-18.95L30.47-18.95L39.26-20.12L41.41-23.24L45.90-20.12L45.90-19.73L30.47-17.97Q30.47-17.77 30.66-17.19L30.66-17.19Q31.25-11.91 32.62-9.18L32.62-9.18Q35.35-11.72 39.26-16.60L39.26-16.60Q41.80-14.65 42.58-13.67L42.58-13.67Q42.58-13.48 41.99-13.28L41.99-13.28Q40.82-12.70 39.84-12.11L39.84-12.11Q39.06-11.52 35.94-8.59L35.94-8.59Q34.57-7.23 33.79-6.64L33.79-6.64Q37.50-0.98 42.38 0.78L42.38 0.78Q43.55-0.39 44.92-8.59L44.92-8.59L45.51-8.40Q44.92-3.13 45.12-0.20L45.12-0.20Q45.31 2.34 46.48 4.30L46.48 4.30Q47.27 5.47 46.48 5.86L46.48 5.86Q37.70 3.91 31.45-4.69L31.45-4.69Q24.22 0.20 14.06 4.30L14.06 4.30L13.87 3.71Q24.41-1.76 30.08-6.84L30.08-6.84Q28.32-11.52 27.54-17.58L27.54-17.58L17.19-16.21L15.43-15.43L14.45-16.99L27.34-18.55Q26.95-22.85 26.95-25.59L26.95-25.59L20.70-24.80L18.75-24.41L17.58-25.78L26.76-26.95Q26.76-28.32 26.56-31.84L26.56-31.84Q26.37-38.28 26.17-41.02ZM5.27-38.67L5.66-39.26Q12.89-36.72 13.48-34.96L13.48-34.96Q13.87-32.42 12.11-31.05L12.11-31.05Q11.52-30.86 10.74-32.42L10.74-32.42Q8.79-36.52 5.27-38.67L5.27-38.67ZM32.62-38.09L33.01-38.48Q39.26-36.72 40.04-34.96L40.04-34.96Q40.63-32.81 38.87-31.25L38.87-31.25Q38.09-31.05 37.30-32.62L37.30-32.62Q35.55-35.94 32.62-38.09L32.62-38.09ZM19.14-36.52L19.14-36.52L19.92-36.33Q9.57-11.33 9.38-8.40L9.38-8.40Q8.98-7.03 9.77-1.17L9.77-1.17Q10.35 2.73 10.16 3.32L10.16 3.32Q8.01 5.86 6.25 1.37L6.25 1.37Q6.25 0.98 6.45-0.59L6.45-0.59Q7.23-5.47 6.64-6.64L6.64-6.64Q6.05-8.40 2.34-8.79L2.34-8.79L2.34-9.38Q7.23-9.18 7.81-11.33L7.81-11.33Q10.35-17.19 15.04-27.73L15.04-27.73Q17.77-33.20 19.14-36.52ZM1.37-27.34L1.56-27.73Q1.95-27.54 2.73-27.34L2.73-27.34Q7.62-25.59 8.59-24.02L8.59-24.02Q10.16-21.09 7.23-19.53L7.23-19.53Q6.84-19.53 6.45-20.70L6.45-20.70Q4.88-25 1.37-27.34L1.37-27.34Z" transform="translate(-1.3671875, 41.015625)"></path></g></g></g></mask><defs v-gra="od"></defs></svg>
